<svg xmlns="http://www.w3.org/2000/svg" xmlns:xlink="http://www.w3.org/1999/xlink" width="30" height="37" viewBox="0 0 30 37">
  <defs>
    <clipPath id="clip-path">
      <rect id="矩形_2179" data-name="矩形 2179" width="30" height="37" transform="translate(0 -4.001)" fill="#fff"/>
    </clipPath>
  </defs>
  <g id="_2" data-name="2" transform="translate(0 4.001)" clip-path="url(#clip-path)">
    <path id="路径_2105" data-name="路径 2105" d="M42.745,19.623H38.917v-1H36.023a3.915,3.915,0,0,0-7.552,0H25.518v1H21.684a2.875,2.875,0,0,0-2.871,2.871v22.3a2.875,2.875,0,0,0,2.871,2.877h21.06A2.875,2.875,0,0,0,45.616,44.8V22.5a2.875,2.875,0,0,0-2.871-2.871ZM27.426,21.538v-1H30.66l-.221-.917-.065-.266a1.077,1.077,0,0,1-.031-.254c0-.778.87-1.437,1.9-1.437s1.9.659,1.9,1.437a1.079,1.079,0,0,1-.031.252l-.065.267-.225.917H37v1.277H27.433ZM43.7,44.8a.957.957,0,0,1-.957.957H21.684a.957.957,0,0,1-.957-.957V22.5a.957.957,0,0,1,.957-.957h3.83v2.194h13.4v-2.2h3.828a.957.957,0,0,1,.957.957Z" transform="translate(-16.895 -16.138)" fill="#fff"/>
    <path id="路径_2106" data-name="路径 2106" d="M95.475,118.468H97.33c-.039.043-.075.085-.116.126a4.766,4.766,0,0,1-7.454-5.85l5.425,2.723,1.939-3.862-7.162-3.6-.478.951-1.14-.574-.851,1.7,1.14.574-.6,1.191.024.012a6.681,6.681,0,0,0,1.066,8.066,6.756,6.756,0,0,0,.8.681h-.759v1.915h8.894v-1.915h-.283a6.752,6.752,0,0,0,.8-.681,6.673,6.673,0,0,0,1.118-1.481h1.532v-1.915H95.475Z" transform="translate(-78.25 -97.15)" fill="#fff"/>
  </g>
</svg>
