<svg xmlns="http://www.w3.org/2000/svg" width="16.006" height="15.91" viewBox="0 0 16.006 15.91">
  <path id="二级菜单_1_" data-name="二级菜单 (1)" d="M74.557,72.959l-6.117,3.25,6.117,3.25,6.117-3.25Zm.282-1.212,7.4,3.931a.6.6,0,0,1,0,1.062l-7.4,3.931a.6.6,0,0,1-.564,0l-7.4-3.931a.6.6,0,0,1,0-1.062l7.4-3.931A.6.6,0,0,1,74.839,71.747Zm6.837,7.4a.6.6,0,1,1,.559,1.065l-7.4,3.885a.6.6,0,0,1-.559,0l-7.4-3.885a.6.6,0,1,1,.559-1.065l7.119,3.738Zm0,3.422a.6.6,0,0,1,.559,1.065l-7.4,3.884a.6.6,0,0,1-.559,0l-7.4-3.884a.6.6,0,1,1,.559-1.065l7.119,3.738,7.119-3.738Z" transform="translate(-66.554 -71.677)" fill="#fff"/>
</svg>
