<svg xmlns="http://www.w3.org/2000/svg" width="16.799" height="17.701" viewBox="0 0 16.799 17.701">
  <g id="组_4076" data-name="组 4076" transform="translate(-16 -527)">
    <g id="检疫证" transform="translate(16 527)">
      <path id="路径_2083" data-name="路径 2083" d="M10.013,81.469H1.422a.989.989,0,0,1-.988-.988v-14.6a.989.989,0,0,1,.988-.988H4.25a.593.593,0,1,1,0,1.185H1.619V80.284h8.394a.593.593,0,1,1,0,1.185Zm5.136-10.231a.593.593,0,0,1-.593-.593V66.076H12.228a.593.593,0,1,1,0-1.185h2.527a.989.989,0,0,1,.988.988v4.767a.593.593,0,0,1-.593.593Z" transform="translate(-0.434 -63.769)" fill="#fff"/>
      <path id="路径_2084" data-name="路径 2084" d="M181.484,335.8h-5.9a.593.593,0,1,1,0-1.185h5.9a.593.593,0,1,1,0,1.185Zm-2.37,3.793h-3.526a.593.593,0,1,1,0-1.185h3.526a.593.593,0,1,1,0,1.185Zm-1.58,3.793h-1.946a.593.593,0,1,1,0-1.185h1.946a.593.593,0,1,1,0,1.185Z" transform="translate(-171.977 -328.834)" fill="#fff"/>
      <path id="路径_2086" data-name="路径 2086" d="M210.484,3.5h-6.637a.83.83,0,0,1-.83-.83V.83a.83.83,0,0,1,.83-.83h6.637a.83.83,0,0,1,.83.83V2.675a.83.83,0,0,1-.83.83ZM204.2,2.319h5.926V1.185H204.2Z" transform="translate(-199.515)" fill="#fff"/>
    </g>
    <g id="组_3326" data-name="组 3326" transform="translate(24.6 534.783)">
      <path id="联合_25" data-name="联合 25" d="M.553,7.391.2,7.008a.783.783,0,0,1,0-1.046L2.038,3.971,2,3.93a.153.153,0,0,1,0-.2l.589-.639L.247.549A.253.253,0,0,1,.191.26.226.226,0,0,1,.4.124H.433L.656.157A7.272,7.272,0,0,1,3.075.943a7.672,7.672,0,0,1,1.042.668A8.17,8.17,0,0,1,5.258.876,7.762,7.762,0,0,1,7.844.036L8.083,0a.2.2,0,0,1,.035,0A.234.234,0,0,1,8.33.14a.259.259,0,0,1-.058.3L5.734,3.188l.388.42a.153.153,0,0,1,0,.2L6.11,3.82l1.838,2a.783.783,0,0,1,0,1.046l-.353.382a.657.657,0,0,1-.981,0L4.783,5.261A.138.138,0,0,1,4.69,5.3a.14.14,0,0,1-.1-.046l-.379-.41-.581.629a.138.138,0,0,1-.205,0l-.058-.062L1.535,7.391a.658.658,0,0,1-.981,0ZM.142,6.485A.616.616,0,0,0,.3,6.9l.354.383a.518.518,0,0,0,.775,0L3.365,5.2l.161.173.683-.74.482.522.093-.1L6.716,7.141a.524.524,0,0,0,.388.174h0a.524.524,0,0,1-.388-.174L4.783,5.048l-.093.1-.482-.522-.683.74-.161-.173L1.432,7.288a.518.518,0,0,1-.775,0L.3,6.905a.616.616,0,0,1-.161-.42Zm.492-.071a.108.108,0,0,0,0,.142l.354.383a.076.076,0,0,0,.114,0L2.94,4.947l-.476-.515ZM5.208,4.8,7.047,6.792a.076.076,0,0,0,.114,0l.354-.383a.11.11,0,0,0,0-.142L5.684,4.285ZM7.846,6.759a.616.616,0,0,0,.161-.42.616.616,0,0,1-.161.42ZM.531,6.312a.256.256,0,0,0-.066.173.256.256,0,0,1,.066-.173L2.464,4.218l.673.729-.673-.729Zm7.086-.146a.253.253,0,0,1,.066.173.253.253,0,0,0-.066-.173L5.684,4.072,5.011,4.8l.673-.729ZM2.8,3.828l.724.784.235-.255-.723-.784Zm1.887.6L5.35,3.71,4.691,3A7.078,7.078,0,0,0,1.539,1.015Zm-.731-.071-.92-1L2.6,3.828l.433-.469ZM2.1,3.828l.132.143Zm3.81,0,.106-.114ZM4.8,2.892l.753.816L4.8,2.892A7.131,7.131,0,0,0,1.1.748,7.131,7.131,0,0,1,4.8,2.892ZM8.175.33,5.537,3.188,8.175.33A.107.107,0,0,0,8.212.247.107.107,0,0,1,8.175.33ZM.345.442,2.787,3.087.345.442A.1.1,0,0,1,.311.368.1.1,0,0,0,.345.442Zm4.3,1.608c.169.154.333.317.489.486l.154.167L6.929.923A7.456,7.456,0,0,0,4.643,2.05Zm-.23-.01A7.5,7.5,0,0,1,7.37.658,7.5,7.5,0,0,0,4.413,2.04ZM.323.318A.091.091,0,0,1,.343.293.091.091,0,0,0,.323.318ZM.438.281.425.275ZM.412.273ZM8.124.148Z" transform="translate(-0.211 0.16)" fill="#fff" stroke="#fff" stroke-linecap="round" stroke-linejoin="round" stroke-width="0.1"/>
    </g>
  </g>
</svg>
