<svg xmlns="http://www.w3.org/2000/svg" width="17.573" height="16.726" viewBox="0 0 17.573 16.726">
  <g id="组_4078" data-name="组 4078" transform="translate(-15.401 -629.912)">
    <g id="检查站管理" transform="translate(-8.525 -321.986)">
      <path id="联合_39" data-name="联合 39" d="M2.63,10.35H0V0H11.385V10.35H8.755a3.106,3.106,0,0,1-6.125,0Z" transform="translate(26.596 952.498)" fill="none" stroke="#fff" stroke-width="1.2"/>
      <path id="减去_7" data-name="减去 7" d="M15.525,5.175H0V0H4.7A3.094,3.094,0,0,0,7.763,2.588,3.094,3.094,0,0,0,10.824,0h4.7V5.174Z" transform="translate(24.526 962.849)" fill="none" stroke="#fff" stroke-width="1.2"/>
      <circle id="椭圆_214" data-name="椭圆 214" cx="3.105" cy="3.105" r="3.105" transform="translate(29.183 955.086)" fill="none" stroke="#fff" stroke-width="1"/>
      <path id="路径_2170" data-name="路径 2170" d="M3972.28,758.953h2.07" transform="translate(-3943.842 199.189)" fill="none" stroke="#fff" stroke-linecap="round" stroke-width="1"/>
      <path id="路径_2171" data-name="路径 2171" d="M3972.56,758.984h2.07" transform="translate(-3938.657 199.19)" fill="none" stroke="#fff" stroke-linecap="round" stroke-width="1"/>
      <path id="路径_2172" data-name="路径 2172" d="M0,0H2.07" transform="translate(32.288 954.261) rotate(90)" fill="none" stroke="#fff" stroke-linecap="round" stroke-width="1"/>
      <path id="路径_2173" data-name="路径 2173" d="M0,0H2.07" transform="translate(32.288 959.953) rotate(90)" fill="none" stroke="#fff" stroke-linecap="round" stroke-width="1"/>
    </g>
  </g>
</svg>
