<svg id="平台管理" xmlns="http://www.w3.org/2000/svg" width="18.182" height="18.16" viewBox="0 0 18.182 18.16">
  <path id="路径_2319" data-name="路径 2319" d="M605.291,568.113l-.573-.329a2.742,2.742,0,0,0,0-1.769l.573-.336a.363.363,0,0,0,.14-.5l-.371-.65a.378.378,0,0,0-.51-.133l-.566.329a3.112,3.112,0,0,0-1.538-.888v-.657a.377.377,0,0,0-.378-.371h-.741a.371.371,0,0,0-.371.371v.657a3.1,3.1,0,0,0-1.545.867l-.566-.329a.378.378,0,0,0-.51.133l-.371.65a.371.371,0,0,0,.14.5l.573.336a2.741,2.741,0,0,0,0,1.769l-.573.329a.378.378,0,0,0-.14.51l.371.643a.378.378,0,0,0,.51.14l.566-.329a3.153,3.153,0,0,0,1.545.888v.657a.371.371,0,0,0,.371.371h.741a.378.378,0,0,0,.378-.371v-.657a3.167,3.167,0,0,0,1.538-.888l.566.329a.378.378,0,0,0,.511-.14l.371-.643a.371.371,0,0,0-.14-.49Zm-3.594.65a1.867,1.867,0,1,1,1.86-1.867A1.867,1.867,0,0,1,601.7,568.764Z" transform="translate(-587.299 -552.814)" fill="#fff"/>
  <path id="路径_2320" data-name="路径 2320" d="M14.635,8.02V2.1a.7.7,0,0,0-.7-.7H2.1a.7.7,0,0,0-.7.7v8.664a.7.7,0,0,0,.7.7H9.02a.7.7,0,0,1,0,1.4H2.1a2.1,2.1,0,0,1-2.1-2.1V2.1A2.1,2.1,0,0,1,2.1,0H13.936a2.1,2.1,0,0,1,2.1,2.1V8.02a.7.7,0,1,1-1.4,0Zm-4.51,7.8a.7.7,0,0,1-.7.7H2.8a.7.7,0,0,1,0-1.4H9.454a.7.7,0,0,1,.7.7Z" transform="translate(0 0)" fill="#fff"/>
  <path id="路径_2321" data-name="路径 2321" d="M169.178,205.017h-5.426a.7.7,0,1,1,0-1.4h5.426a.7.7,0,1,1,0,1.4Zm3.419,4.231h-8.845a.7.7,0,0,1,0-1.4H172.6a.7.7,0,0,1,0,1.4Z" transform="translate(-160.158 -200.004)" fill="#fff"/>
</svg>
