<svg xmlns="http://www.w3.org/2000/svg" width="18.357" height="18.334" viewBox="0 0 18.357 18.334">
  <g id="平台管理" transform="translate(0 0)">
    <path id="路径_2116" data-name="路径 2116" d="M605.362,568.164l-.579-.332a2.767,2.767,0,0,0,0-1.786l.579-.339a.367.367,0,0,0,.141-.508l-.374-.657a.381.381,0,0,0-.515-.134l-.572.332a3.142,3.142,0,0,0-1.553-.9v-.664a.381.381,0,0,0-.381-.374h-.748a.374.374,0,0,0-.374.374v.664a3.135,3.135,0,0,0-1.56.875l-.572-.332a.381.381,0,0,0-.515.134l-.374.657a.374.374,0,0,0,.141.508l.579.339a2.767,2.767,0,0,0,0,1.786l-.579.332a.381.381,0,0,0-.141.515l.374.649a.381.381,0,0,0,.515.141l.572-.332a3.184,3.184,0,0,0,1.56.9v.664a.374.374,0,0,0,.374.374h.748a.381.381,0,0,0,.381-.374v-.664a3.2,3.2,0,0,0,1.553-.9l.572.332a.381.381,0,0,0,.515-.141l.374-.649a.374.374,0,0,0-.141-.494Zm-3.629.657a1.885,1.885,0,1,1,1.878-1.885A1.885,1.885,0,0,1,601.733,568.821Z" transform="translate(-587.197 -552.717)" fill="#fff"/>
    <path id="路径_2117" data-name="路径 2117" d="M14.776,8.1V2.118a.706.706,0,0,0-.706-.706H2.118a.706.706,0,0,0-.706.706v8.747a.706.706,0,0,0,.706.706H9.107a.706.706,0,0,1,0,1.412H2.118A2.118,2.118,0,0,1,0,10.865V2.118A2.118,2.118,0,0,1,2.118,0H14.07a2.118,2.118,0,0,1,2.118,2.118V8.1a.706.706,0,1,1-1.412,0Zm-4.554,7.879a.706.706,0,0,1-.706.706H2.824a.706.706,0,1,1,0-1.412H9.545a.706.706,0,0,1,.706.706Z" transform="translate(0 0)" fill="#fff"/>
    <path id="路径_2118" data-name="路径 2118" d="M169.237,205.031h-5.478a.706.706,0,1,1,0-1.412h5.478a.706.706,0,0,1,0,1.412Zm3.452,4.271h-8.931a.706.706,0,1,1,0-1.412h8.931a.706.706,0,1,1,0,1.412Z" transform="translate(-160.13 -199.969)" fill="#fff"/>
  </g>
</svg>
