<svg xmlns="http://www.w3.org/2000/svg" width="16.869" height="17.443" viewBox="0 0 16.869 17.443">
  <g id="检疫证查询" transform="translate(-3975.43 -775.446)">
    <path id="开票管理" d="M30.843,179.61a.545.545,0,1,1,0,1.088H22.116a.545.545,0,1,1,0-1.088h8.727Zm-3.4,2.719a.541.541,0,1,1,0,1.08H22.116a.541.541,0,1,1,0-1.08h5.332Zm-2.578,2.719a.541.541,0,1,1,0,1.08H22.116a.541.541,0,1,1,0-1.08Zm9.714-8.838H19.989a.526.526,0,0,0-.487.491v15.712a.49.49,0,0,0,.487.491h5.377a.491.491,0,1,0,0-.982h-4.89v-14.73H34.1v5.417a.486.486,0,0,0,.973,0V176.7A.49.49,0,0,0,34.584,176.21Z" transform="translate(3956.028 599.336)" fill="#fff" stroke="#fff" stroke-width="0.2"/>
    <g id="组_3382" data-name="组 3382" transform="translate(3982.316 782.905)">
      <path id="路径_2176" data-name="路径 2176" d="M727.21,700.927a1.1,1.1,0,1,0,.782.32,1.1,1.1,0,0,0-.782-.32Z" transform="translate(-722.941 -697.783)" fill="#fff"/>
      <path id="路径_2177" data-name="路径 2177" d="M606.177,577.376a4.992,4.992,0,1,0,4.991,4.991,4.992,4.992,0,0,0-4.991-4.991Zm2.4,7.925a.552.552,0,0,1-.391-.162l-1.617-1.618a2.212,2.212,0,1,1,.78-.78l1.618,1.617a.552.552,0,0,1-.39.942Z" transform="translate(-601.185 -577.376)" fill="#fff"/>
    </g>
  </g>
</svg>
