<svg xmlns="http://www.w3.org/2000/svg" width="17.341" height="17.343" viewBox="0 0 17.341 17.343">
  <path id="统计分析-项目表格统计" d="M110.987,115.843v-8.05a1.239,1.239,0,0,1,1.237-1.24H114.7a1.239,1.239,0,0,1,1.24,1.237v8.052Zm4.026-8.05a.309.309,0,0,0-.309-.309h-2.477a.311.311,0,0,0-.311.307v7.124h3.1v-7.122ZM104.8,99.74a1.236,1.236,0,0,1,1.231-1.24h2.483a1.236,1.236,0,0,1,1.235,1.235v16.108H104.8Zm.928,15.174h3.094V99.742a.31.31,0,0,0-.307-.309h-2.479a.311.311,0,0,0-.307.309v15.171ZM98.6,104.7a1.24,1.24,0,0,1,1.237-1.24h2.477a1.236,1.236,0,0,1,1.24,1.235v11.152H98.6Zm.93,10.217h3.1V104.7a.31.31,0,0,0-.309-.309H99.842a.311.311,0,0,0-.311.307v10.22Z" transform="translate(-98.6 -98.5)" fill="#fff"/>
</svg>
