<svg id="我的账户" xmlns="http://www.w3.org/2000/svg" width="15.566" height="16.989" viewBox="0 0 15.566 16.989">
  <path id="路径_2322" data-name="路径 2322" d="M233.717,17.514a4.6,4.6,0,1,1,4.6-4.6A4.6,4.6,0,0,1,233.717,17.514Zm0-8.139a3.542,3.542,0,1,0,3.542,3.542A3.542,3.542,0,0,0,233.717,9.375Z" transform="translate(-226.084 -8.32)" fill="#fff"/>
  <path id="路径_2323" data-name="路径 2323" d="M58.329,500.965H48.64V499.78a7.622,7.622,0,0,1,7.644-7.622.538.538,0,0,1,0,1.077,6.578,6.578,0,0,0-6.567,6.567v.129h8.613a.538.538,0,1,1,0,1.077Z" transform="translate(-48.64 -484.019)" fill="#fff"/>
  <path id="路径_2324" data-name="路径 2324" d="M376.308,498.45h-9.689a.538.538,0,0,1,0-1.077h8.613v-.129a6.578,6.578,0,0,0-6.567-6.567.538.538,0,1,1,0-1.077,7.622,7.622,0,0,1,7.622,7.622Z" transform="translate(-360.74 -481.504)" fill="#fff"/>
</svg>
