<svg xmlns="http://www.w3.org/2000/svg" width="17.933" height="16.079" viewBox="0 0 17.933 16.079">
  <g id="用户管理" transform="translate(-4005.986 -1504.071)">
    <path id="路径_2182" data-name="路径 2182" d="M102.155,101.546a3.282,3.282,0,0,0-1.74-1.74q-.118-.05-.24-.09a1.776,1.776,0,0,0,.208-.178,1.756,1.756,0,1,0-2.483,0,1.777,1.777,0,0,0,.208.178q-.121.041-.24.09a3.268,3.268,0,0,0-2,3.014v.172a.079.079,0,0,0,.079.079h6.383a.079.079,0,0,0,.079-.079v-.172A3.249,3.249,0,0,0,102.155,101.546ZM97.888,98.3a1.253,1.253,0,1,1,1.253,1.253A1.254,1.254,0,0,1,97.888,98.3Zm-1.5,4.272a2.768,2.768,0,0,1,5.513,0Z" transform="translate(3912.574 1413.62)" fill="#fff" stroke="#fff" stroke-width="0.3"/>
    <path id="路径_2180" data-name="路径 2180" d="M51.421,137.432H36.276a1.255,1.255,0,0,0-1.244,1.244v13.291a1.255,1.255,0,0,0,1.244,1.244H51.421a1.255,1.255,0,0,0,1.244-1.244V138.676A1.255,1.255,0,0,0,51.421,137.432Zm-15.145.792H51.421a.487.487,0,0,1,.452.452v1.866H35.824v-1.866a.446.446,0,0,1,.452-.452Zm15.145,14.139H36.276a.487.487,0,0,1-.452-.452V141.278H51.873V151.91a.446.446,0,0,1-.452.452Z" transform="translate(3971.104 1366.789)" fill="#fff" stroke="#fff" stroke-width="0.3"/>
    <path id="路径_2181" data-name="路径 2181" d="M127.079,217.692h-4.8a.4.4,0,1,0,0,.792h4.8a.4.4,0,1,0,0-.792Zm0,2.545h-4.8a.4.4,0,1,0,0,.792h4.8a.4.4,0,0,0,0-.792Zm0,2.488h-4.8a.4.4,0,1,0,0,.792h4.8a.4.4,0,1,0,0-.792Zm-13.561-9.049h1.131a.387.387,0,0,0,.4-.4c0-.226-.113-.4-.339-.4h-1.131a.387.387,0,0,0-.4.4C113.179,213.507,113.292,213.676,113.518,213.676Zm2.828,0h1.131a.4.4,0,1,0,0-.792h-1.131a.4.4,0,1,0,0,.792Z" transform="translate(3894.597 1292.92)" fill="#fff" stroke="#fff" stroke-width="0.3"/>
  </g>
</svg>
