<svg xmlns="http://www.w3.org/2000/svg" width="18.201" height="17.163" viewBox="0 0 18.201 17.163">
  <g id="预警管理" transform="translate(-15.405 -380.37)">
    <path id="路径_2174" data-name="路径 2174" d="M42.335,63.69H40.083v-.4a6.65,6.65,0,0,0-.033-.667h2.287a.535.535,0,0,1,0,1.069Zm-3.717-4.5a6.485,6.485,0,0,0-.742-.76l1.665-1.714a.512.512,0,0,1,.74,0,.55.55,0,0,1,0,.763Zm.426,10.566h1.212a.536.536,0,0,1,0,1.072H27.441a.536.536,0,0,1,0-1.072h1.212v-6.42a5.2,5.2,0,1,1,10.393-.282v6.7ZM38.006,63.69a4.387,4.387,0,0,0-4.04-4.528,4.375,4.375,0,0,0-4.274,4.3q0,.117,0,.234v6.062h8.314Zm-4.067-2.279a.514.514,0,0,1,.737,0,.548.548,0,0,1,0,.76l-1.13,1.162h1.867a.526.526,0,0,1,.519.533h0a.535.535,0,0,1-.041.21.563.563,0,0,1-.128.558l-2.036,2.1a.532.532,0,0,1-.753.012l-.012-.012a.565.565,0,0,1,0-.787l1.5-1.544H32.64a6.041,6.041,0,0,1-.658-.213.549.549,0,0,1,0-.757Zm-.6-4.471V54.414a.519.519,0,1,1,1.037,0v2.525c-.175-.014-.347-.027-.524-.027s-.346.014-.516.027Zm-4.173,2.15-1.684-1.735a.545.545,0,0,1,0-.754.506.506,0,0,1,.734,0l1.7,1.746a6.411,6.411,0,0,0-.75.743Zm-1.55,4.2v.4H25.361a.536.536,0,0,1,0-1.071h2.287q-.033.334-.033.669Z" transform="translate(-9.343 326.605)" fill="#fff" stroke="#fff" stroke-width="0.2"/>
  </g>
</svg>
