<svg xmlns="http://www.w3.org/2000/svg" width="16.25" height="17.23" viewBox="0 0 16.25 17.23">
  <g id="组_4077" data-name="组 4077" transform="translate(-16.4 -578.395)">
    <path id="开票管理" d="M30.862,179.615a.546.546,0,1,1,0,1.09H22.12a.546.546,0,1,1,0-1.09Zm-3.4,2.724a.542.542,0,1,1,0,1.081H22.12a.542.542,0,1,1,0-1.081h5.341Zm7.1,9.9a.514.514,0,0,1,.534.486.522.522,0,0,1-.534.5H28.89a.5.5,0,1,1,0-.992Zm-.145-3.882a1.109,1.109,0,0,1,1.136,1.089V191.2a.45.45,0,0,1-.465.433H28.356a.462.462,0,0,1-.476-.443v-1.74a1.111,1.111,0,0,1,1.138-1.09h1.116c.146-.324-.038-.911-.5-1.613l-.009-.009a.142.142,0,0,1-.03-.055,2.731,2.731,0,0,1-.409-1.388,2.421,2.421,0,0,1,2.518-2.351h.019a2.429,2.429,0,0,1,2.525,2.352,2.757,2.757,0,0,1-.408,1.4.191.191,0,0,1-.02.027v.008l-.009.018c-.467.7-.65,1.3-.506,1.614h1.119Zm.088,2.269h-.011V189.45a.087.087,0,0,0-.083-.09H32.835l-.067-.055c-.807-.621-.768-1.71.135-3.072a1.773,1.773,0,0,0,.292-.937,1.481,1.481,0,0,0-2.952,0,1.816,1.816,0,0,0,.292.937c.9,1.362.951,2.452.135,3.074l-.067.055H29.017a.087.087,0,0,0-.088.086v1.184h5.576Zm-8.627-5.568a.542.542,0,1,1,0,1.082H22.12a.542.542,0,1,1,0-1.082Zm8.731-8.853H19.99a.527.527,0,0,0-.487.492V192.44a.491.491,0,0,0,.487.492h4.386a.492.492,0,1,0,0-.984h-3.9V177.194H34.122v4.426a.487.487,0,0,0,.974,0V176.7a.491.491,0,0,0-.487-.49Z" transform="translate(-3.003 402.29)" fill="#fff" stroke="#fff" stroke-width="0.2"/>
  </g>
</svg>
